<?xml version="1.0" standalone="no"?>
<!DOCTYPE svg PUBLIC "-//W3C//DTD SVG 20010904//EN"
 "http://www.w3.org/TR/2001/REC-SVG-20010904/DTD/svg10.dtd">
<svg version="1.0" xmlns="http://www.w3.org/2000/svg"
 width="1636.000000pt" height="1778.000000pt" viewBox="0 0 1636.000000 1778.000000"
 preserveAspectRatio="xMidYMid meet">

<g transform="translate(0.000000,1778.000000) scale(0.100000,-0.100000)"
fill="#000000" stroke="none">
<path d="M7900 17753 c-320 -14 -623 -48 -875 -98 -344 -69 -576 -147 -855
-286 -517 -259 -991 -669 -1490 -1290 -416 -517 -593 -893 -641 -1358 -15
-144 -6 -516 16 -701 24 -201 152 -1117 180 -1298 61 -380 155 -775 255 -1066
36 -106 36 -106 10 -106 -30 0 -85 -55 -98 -98 -19 -64 -14 -123 28 -311 72
-320 79 -406 59 -661 -7 -93 -8 -252 -1 -510 9 -367 10 -377 36 -453 32 -96
63 -146 135 -220 99 -104 228 -178 366 -213 37 -9 68 -22 70 -28 2 -6 11 -81
20 -166 47 -452 57 -507 110 -665 45 -132 232 -567 276 -641 19 -32 73 -98
121 -146 47 -49 80 -88 73 -88 -8 0 -16 -8 -19 -17 -5 -18 -20 -195 -31 -361
-6 -89 -10 -99 -69 -220 -75 -151 -125 -234 -211 -352 l-64 -87 -178 -87
c-367 -180 -589 -308 -1143 -659 -939 -594 -1082 -666 -2227 -1123 -875 -349
-1051 -435 -1217 -593 -207 -198 -305 -462 -410 -1092 -90 -541 -110 -758
-109 -1169 1 -401 28 -695 99 -1065 29 -150 112 -486 124 -498 4 -5 1861 -3
4126 3 2266 7 5877 15 8026 19 2148 3 3910 9 3913 13 18 18 28 790 17 1238
-22 805 -51 1047 -173 1415 -99 300 -198 474 -339 597 -30 26 -144 108 -255
183 -160 107 -262 167 -491 283 -159 82 -401 209 -539 284 -137 74 -396 211
-575 303 -432 223 -607 316 -840 448 -107 61 -283 153 -390 205 -107 52 -280
136 -385 187 -630 308 -1054 671 -1427 1225 -100 147 -151 248 -194 382 -15
48 -31 85 -36 82 -4 -3 -8 70 -8 161 l0 166 154 74 c234 113 271 153 441 473
259 484 349 816 362 1325 5 198 8 229 22 234 64 20 144 69 185 113 108 115
153 298 172 700 10 223 -23 661 -76 1014 -26 166 -26 332 0 629 39 443 74 662
165 1022 136 539 155 706 114 1015 -18 131 -119 629 -164 806 -73 290 -152
465 -350 784 -88 140 -181 328 -219 440 -13 41 -57 185 -96 319 -132 452 -215
613 -429 835 -309 318 -759 530 -1361 640 -452 82 -1197 131 -1690 109z m596
-1488 c355 -38 681 -121 1064 -272 323 -128 645 -289 860 -431 358 -237 518
-530 829 -1519 29 -89 80 -229 115 -310 58 -136 112 -287 150 -420 18 -63 28
-60 -125 -39 -127 18 -328 37 -812 76 -542 44 -749 53 -940 41 -279 -19 -409
-46 -760 -160 -118 -38 -251 -77 -297 -85 -157 -30 -540 -15 -1010 40 -583 68
-895 56 -1740 -67 -484 -70 -621 -98 -767 -157 l-51 -21 -7 112 c-13 216 25
462 111 706 31 86 86 246 124 356 137 404 180 501 318 711 187 286 362 467
687 714 293 223 407 299 580 387 367 186 727 299 1110 346 84 11 431 5 561 -8z
m2018 -3051 c340 -26 423 -38 535 -77 227 -79 350 -266 351 -532 0 -110 -45
-495 -70 -602 -47 -201 -158 -358 -305 -434 -171 -89 -293 -109 -700 -116
-489 -9 -657 14 -871 116 -220 105 -344 218 -444 404 -47 87 -170 402 -201
514 -13 47 -23 122 -26 188 -4 93 -2 119 15 167 64 181 247 302 532 352 338
60 613 64 1184 20z m-3304 -124 c410 -44 617 -231 597 -540 -9 -129 -98 -451
-168 -608 -142 -316 -438 -537 -830 -620 -135 -29 -505 -73 -739 -87 -182 -12
-350 18 -459 82 -181 106 -323 371 -417 778 -34 151 -39 325 -10 420 47 157
153 283 297 354 109 54 226 79 619 135 591 85 896 108 1110 86z m1231 -286
c71 -21 132 -83 153 -155 9 -28 23 -106 31 -173 9 -66 26 -150 38 -186 32 -94
258 -523 318 -602 150 -200 423 -335 778 -384 86 -12 190 -16 397 -16 443 1
646 24 820 91 194 75 339 205 438 392 56 107 87 205 131 421 35 172 60 276 68
285 3 2 8 -47 11 -109 15 -240 67 -815 88 -961 19 -127 22 -196 22 -417 0
-286 -7 -373 -59 -725 -71 -478 -73 -504 -85 -1015 -7 -299 -13 -414 -29 -515
-50 -325 -125 -551 -290 -870 -200 -385 -230 -421 -460 -532 -86 -41 -179 -92
-208 -113 -28 -22 -97 -92 -153 -157 -123 -142 -144 -162 -330 -316 -80 -66
-224 -197 -320 -292 -234 -228 -371 -317 -586 -380 -153 -45 -248 -54 -674
-66 -653 -20 -887 10 -1155 144 -177 88 -301 186 -575 452 -293 285 -472 422
-805 615 -267 155 -351 220 -439 341 -48 65 -76 122 -195 405 -144 342 -162
412 -201 789 -12 110 -30 274 -40 365 -11 91 -29 289 -40 440 -38 516 -59 646
-154 965 -29 99 -63 219 -75 267 l-22 87 20 148 c47 340 90 765 112 1090 7
101 15 181 18 178 2 -3 46 -155 97 -339 51 -183 107 -370 124 -414 95 -247
301 -405 610 -467 108 -22 353 -30 495 -16 577 55 1034 231 1306 503 137 137
231 300 285 498 29 104 38 152 64 348 21 158 41 227 84 293 64 96 246 144 387
103z m-3901 -1297 c0 -2 34 -91 76 -198 133 -341 211 -559 267 -749 115 -384
127 -451 167 -1001 11 -152 25 -314 31 -359 5 -45 8 -85 5 -87 -8 -8 -117 27
-191 61 -174 81 -295 216 -342 379 -21 74 -39 754 -24 925 21 242 11 358 -60
669 -51 225 -51 283 3 341 17 18 68 32 68 19z m7337 -289 c-3 -8 -6 -5 -6 6
-1 11 2 17 5 13 3 -3 4 -12 1 -19z m11 -128 c12 0 17 -26 42 -245 33 -291 44
-576 31 -781 -22 -351 -64 -507 -162 -605 -38 -38 -128 -89 -157 -89 -10 0
-11 31 -7 143 9 224 23 360 70 682 47 326 61 445 71 631 6 113 8 120 27 120
16 -1 23 9 33 54 7 30 13 71 14 90 1 31 2 33 14 18 7 -10 18 -18 24 -18z
m-6067 -3808 c24 -16 105 -64 179 -107 312 -181 481 -310 764 -583 225 -218
308 -291 425 -371 280 -191 553 -261 1015 -261 308 1 746 19 846 35 191 31
361 97 519 202 56 37 149 119 266 233 99 97 245 230 325 296 80 66 188 167
240 224 52 57 125 135 162 174 l68 71 0 -247 c0 -148 -6 -297 -14 -375 -8 -70
-17 -265 -21 -433 -9 -419 -37 -614 -126 -881 -100 -301 -233 -527 -413 -703
-96 -93 -214 -172 -431 -291 -290 -157 -440 -270 -658 -494 -288 -297 -362
-442 -478 -936 -22 -93 -49 -206 -61 -249 l-21 -79 -77 224 c-131 379 -237
647 -384 971 -42 92 -83 176 -91 185 -9 10 -24 28 -33 40 -16 21 -149 66 -614
209 -65 19 -111 42 -177 88 -291 200 -557 479 -786 822 -107 160 -271 455
-341 613 -99 225 -176 498 -204 721 -26 204 -22 621 7 878 6 51 7 52 37 52 18
0 52 -13 77 -28z m-205 -585 c-4 -12 -20 -38 -37 -57 l-31 -35 34 68 c30 63
48 75 34 24z m5061 -84 c-2 -21 -4 -6 -4 32 0 39 2 55 4 38 2 -18 2 -50 0 -70z
m-5456 -397 c-7 -8 -42 -26 -79 -41 -102 -41 -104 -40 -12 9 90 48 110 55 91
32z m5229 -1155 c-47 -122 -169 -333 -217 -372 -8 -7 10 23 40 67 63 93 123
202 162 297 33 79 44 85 15 8z m-3150 -1167 c191 -89 240 -257 103 -350 -77
-51 -181 -35 -264 43 -104 97 -120 224 -37 299 30 28 44 32 98 33 28 1 65 -9
100 -25z m2428 -488 c92 -48 126 -150 81 -244 -31 -63 -86 -97 -158 -96 -105
0 -172 62 -179 165 -8 110 64 188 176 189 29 0 65 -6 80 -14z m-1047 -103
c-11 -21 -20 -35 -21 -31 0 12 33 78 38 74 2 -2 -6 -21 -17 -43z m-1878 -7
c44 -18 94 -77 107 -126 20 -76 -19 -164 -90 -200 -138 -71 -299 54 -260 201
16 57 45 95 94 119 48 23 103 26 149 6z m-6724 -1383 c-6 -153 -10 -399 -7
-548 4 -287 -5 -231 -17 95 -6 176 2 436 21 663 14 158 15 61 3 -210z m7844
240 c47 -19 110 -90 125 -141 28 -94 5 -197 -60 -262 -90 -90 -205 -76 -308
37 -81 88 -99 181 -54 271 53 107 171 144 297 95z m-7836 -1135 c-2 -13 -4 -5
-4 17 -1 22 1 32 4 23 2 -10 2 -28 0 -40z m10 -90 c-3 -7 -5 -2 -5 12 0 14 2
19 5 13 2 -7 2 -19 0 -25z m10 -70 c-3 -8 -6 -5 -6 6 -1 11 2 17 5 13 3 -3 4
-12 1 -19z m60 -360 c-3 -8 -6 -5 -6 6 -1 11 2 17 5 13 3 -3 4 -12 1 -19z m10
-50 c-3 -8 -6 -5 -6 6 -1 11 2 17 5 13 3 -3 4 -12 1 -19z m10 -50 c-3 -8 -6
-5 -6 6 -1 11 2 17 5 13 3 -3 4 -12 1 -19z m10 -40 c-3 -8 -6 -5 -6 6 -1 11 2
17 5 13 3 -3 4 -12 1 -19z m64 -220 l20 -68 1012 -3 1012 -2 -1019 0 -1019 0
-34 125 c-18 69 -33 132 -32 140 0 8 9 -16 20 -55 11 -38 29 -100 40 -137z"/>
<path d="M10025 14313 c-205 -24 -488 -78 -671 -129 -228 -62 -372 -153 -429
-269 -30 -60 -28 -169 3 -213 36 -49 95 -75 172 -75 87 1 152 25 310 119 73
42 171 91 218 108 84 30 92 31 257 31 148 0 201 -5 405 -38 129 -21 270 -46
314 -57 207 -52 437 -188 641 -382 l84 -80 -15 54 c-23 80 -125 283 -185 370
-124 177 -292 345 -435 434 -144 90 -326 135 -529 132 -60 0 -123 -3 -140 -5z"/>
<path d="M6505 14174 c-16 -2 -70 -9 -120 -15 -188 -23 -443 -102 -585 -181
-201 -113 -381 -309 -498 -543 -42 -85 -96 -234 -108 -299 l-7 -40 93 98 c221
231 393 340 735 466 504 186 783 196 1139 38 260 -115 405 -127 504 -42 96 81
75 194 -51 275 -117 76 -430 184 -637 220 -109 19 -392 33 -465 23z"/>
<path d="M9851 13199 c-236 -25 -387 -101 -480 -241 -46 -67 -47 -73 -26 -82
10 -3 26 11 48 47 92 144 230 210 492 237 301 31 526 -27 725 -188 74 -59 114
-104 195 -217 17 -22 25 -26 38 -19 16 9 12 18 -31 80 -108 153 -285 286 -455
342 -151 50 -300 62 -506 41z"/>
<path d="M9821 12999 c-291 -39 -516 -203 -606 -443 l-26 -69 28 6 c120 23
210 29 365 23 521 -19 490 -20 708 8 136 17 254 26 348 26 l143 0 -44 58
c-100 129 -242 243 -385 309 -153 71 -366 104 -531 82z m266 -45 c-3 -3 -12
-4 -19 -1 -8 3 -5 6 6 6 11 1 17 -2 13 -5z m77 -20 c23 -23 20 -26 -11 -11
-16 8 -35 17 -43 20 -9 3 -4 6 12 6 15 1 34 -6 42 -15z m193 -65 c98 -47 225
-141 288 -212 25 -28 45 -55 45 -59 0 -5 -46 -8 -102 -8 -57 0 -170 -9 -252
-20 -82 -11 -152 -18 -154 -15 -2 2 5 16 17 31 47 60 66 214 36 297 l-13 39
26 -7 c15 -3 64 -24 109 -46z m-739 24 c-22 -26 -44 -73 -51 -111 -8 -41 24
-143 59 -189 l25 -33 -133 0 c-73 0 -162 -5 -198 -10 -35 -5 -66 -8 -67 -6 -2
1 11 32 29 67 45 92 170 214 267 262 84 42 90 44 69 20z m517 -323 c-16 -16
-38 -30 -49 -30 -15 0 -8 8 24 29 57 38 60 38 25 1z"/>
<path d="M6493 13009 c-261 -30 -495 -149 -620 -314 -49 -64 -113 -188 -113
-217 0 -42 30 -12 73 75 103 207 284 336 561 399 129 29 338 29 457 0 154 -38
263 -98 370 -205 53 -53 62 -58 75 -45 13 13 6 23 -59 85 -136 129 -293 200
-489 222 -108 12 -150 12 -255 0z"/>
<path d="M6518 12829 c-180 -20 -355 -117 -475 -260 -40 -49 -141 -235 -132
-243 5 -5 152 -24 279 -36 135 -13 433 -13 517 0 36 6 133 33 217 59 179 58
276 74 411 70 89 -4 100 -2 100 13 0 28 -443 303 -565 351 -110 43 -238 60
-352 46z m195 -46 c-7 -2 -19 -2 -25 0 -7 3 -2 5 12 5 14 0 19 -2 13 -5z m462
-217 l160 -101 -102 -7 c-86 -5 -240 -38 -307 -64 -17 -7 -17 -6 0 27 11 22
19 64 22 121 4 79 2 91 -22 134 -14 25 -26 49 -26 51 0 7 105 -54 275 -161z
m-891 115 c-26 -77 -28 -135 -5 -208 11 -38 35 -89 52 -113 l31 -43 -98 7
c-140 10 -278 27 -288 36 -13 13 60 141 116 204 45 51 179 156 198 156 4 0 2
-17 -6 -39z m571 -301 c-10 -11 -23 -20 -29 -20 -6 0 0 9 14 20 32 25 38 25
15 0z"/>
<path d="M9087 11372 c-19 -4 -17 -18 10 -105 23 -73 74 -142 192 -257 82 -80
116 -122 144 -176 86 -167 91 -348 12 -493 -27 -48 -108 -135 -148 -157 -18
-10 -15 -44 4 -44 21 0 118 92 156 148 104 154 112 364 21 546 -36 73 -87 136
-190 234 -92 88 -133 149 -162 240 -17 53 -25 67 -39 64z"/>
<path d="M7570 11192 c0 -108 -39 -202 -131 -316 -127 -158 -176 -347 -134
-525 21 -89 59 -153 127 -216 68 -64 143 -95 243 -101 73 -5 100 3 90 27 -4
10 -25 14 -83 15 -345 2 -473 455 -217 769 103 126 145 225 145 341 0 57 -2
64 -20 64 -18 0 -20 -7 -20 -58z"/>
<path d="M8832 10589 c-104 -52 -95 -175 15 -207 74 -21 175 -25 216 -9 128
54 9 237 -154 237 -19 0 -53 -10 -77 -21z"/>
<path d="M7935 10556 c-84 -27 -163 -83 -191 -137 -20 -39 -18 -85 6 -109 36
-36 63 -35 157 8 48 21 109 47 136 56 53 20 67 39 67 89 0 43 -34 82 -86 96
-46 13 -39 13 -89 -3z"/>
<path d="M8055 9276 c-56 -18 -97 -40 -200 -110 -49 -33 -214 -124 -365 -201
-260 -133 -510 -273 -510 -285 0 -3 56 -36 124 -74 68 -37 161 -95 207 -128
154 -110 321 -190 489 -236 95 -26 97 -26 450 -24 391 3 509 12 617 48 83 27
571 269 651 321 69 46 155 125 204 187 37 47 38 49 21 68 -86 95 -541 326
-815 413 -146 47 -294 35 -411 -33 l-48 -27 -67 32 c-125 60 -254 78 -347 49z
m204 -41 c35 -9 97 -33 137 -54 l73 -38 43 29 c111 74 269 88 417 39 111 -37
341 -136 484 -207 124 -62 287 -169 287 -188 0 -19 -149 -159 -212 -200 -32
-20 -179 -97 -327 -170 -351 -174 -362 -177 -706 -181 -137 -1 -293 -6 -345
-10 -253 -19 -549 85 -815 285 -27 20 -90 59 -138 85 -48 26 -87 49 -85 51 2
2 64 14 138 28 232 42 354 50 670 40 409 -13 605 -10 751 9 184 25 427 37 756
37 185 0 294 4 298 10 3 6 -2 13 -11 17 -10 4 -209 1 -443 -5 -313 -9 -469
-17 -586 -33 -189 -24 -401 -27 -690 -9 -268 16 -550 0 -769 -46 -38 -8 -71
-13 -72 -11 -6 6 149 89 393 212 127 64 276 145 330 181 218 146 274 163 422
129z"/>
<path d="M7161 3824 c-42 -35 -49 -81 -21 -139 60 -124 218 -135 259 -18 13
37 13 43 -6 79 -13 26 -38 50 -73 72 -68 40 -116 42 -159 6z m126 -10 c59 -29
93 -70 93 -115 0 -109 -153 -123 -213 -19 -28 47 -25 99 8 127 31 27 64 29
112 7z"/>
<path d="M9593 3341 c-127 -80 -39 -278 103 -231 53 18 84 62 84 121 0 42 -5
55 -33 85 -42 46 -104 56 -154 25z m140 -41 c62 -69 17 -170 -76 -170 -107 0
-145 128 -57 188 46 31 94 24 133 -18z"/>
<path d="M6661 3214 c-45 -38 -57 -92 -32 -148 25 -57 66 -80 130 -73 108 12
148 144 65 216 -47 42 -117 44 -163 5z m149 -21 c42 -39 49 -87 18 -133 -60
-88 -188 -50 -188 57 0 93 101 138 170 76z"/>
<path d="M7763 2074 c-64 -32 -90 -114 -60 -187 8 -18 33 -49 56 -69 36 -33
47 -38 90 -38 39 0 56 6 82 27 61 52 77 143 36 204 -49 74 -131 99 -204 63z
m135 -24 c39 -24 72 -75 72 -113 0 -73 -56 -137 -121 -137 -65 0 -139 82 -139
155 0 89 108 144 188 95z"/>
</g>
</svg>
